<mxfile host="app.diagrams.net" modified="2023-11-23T08:14:04.205Z" agent="Mozilla/5.0 (Windows NT 10.0; Win64; x64) AppleWebKit/537.36 (KHTML, like Gecko) Chrome/119.0.0.0 Safari/537.36" version="22.1.3" etag="D-FlDLbzHsjqDaxhbZrk" type="github">
  <diagram name="PÃ¡gina-1" id="D6IJcM6UBCZWlfuRNH1y">
    <mxGraphModel>
      <root>
        <mxCell id="0" />
        <mxCell id="1" parent="0" />
      </root>
    </mxGraphModel>
  </diagram>
</mxfile>
